<mxfile host="app.diagrams.net" agent="Mozilla/5.0 (Macintosh; Intel Mac OS X 10_15_7) AppleWebKit/537.36 (KHTML, like Gecko) Chrome/138.0.0.0 Safari/537.36" version="27.2.0">
  <diagram name="第 1 页" id="PBXTiW6mpYw9qoerVGSO">
    <mxGraphModel dx="1426" dy="693" grid="0" gridSize="10" guides="1" tooltips="1" connect="1" arrows="1" fold="1" page="0" pageScale="1" pageWidth="827" pageHeight="1169" math="0" shadow="0">
      <root>
        <mxCell id="0" />
        <mxCell id="1" parent="0" />
        <mxCell id="isZL2Ls8pScrw3JJbjqI-17" style="edgeStyle=orthogonalEdgeStyle;rounded=0;orthogonalLoop=1;jettySize=auto;html=1;exitX=1;exitY=0.5;exitDx=0;exitDy=0;entryX=0;entryY=0.25;entryDx=0;entryDy=0;" edge="1" parent="1" source="isZL2Ls8pScrw3JJbjqI-1" target="isZL2Ls8pScrw3JJbjqI-4">
          <mxGeometry relative="1" as="geometry" />
        </mxCell>
        <mxCell id="isZL2Ls8pScrw3JJbjqI-1" value="CSERP关键词" style="rounded=1;whiteSpace=wrap;html=1;" vertex="1" parent="1">
          <mxGeometry x="80" y="120" width="80" height="40" as="geometry" />
        </mxCell>
        <mxCell id="isZL2Ls8pScrw3JJbjqI-18" style="edgeStyle=orthogonalEdgeStyle;rounded=0;orthogonalLoop=1;jettySize=auto;html=1;exitX=1;exitY=0.5;exitDx=0;exitDy=0;entryX=0;entryY=0.5;entryDx=0;entryDy=0;" edge="1" parent="1" source="isZL2Ls8pScrw3JJbjqI-2" target="isZL2Ls8pScrw3JJbjqI-4">
          <mxGeometry relative="1" as="geometry" />
        </mxCell>
        <mxCell id="isZL2Ls8pScrw3JJbjqI-2" value="Showroom关键词" style="rounded=1;whiteSpace=wrap;html=1;" vertex="1" parent="1">
          <mxGeometry x="80" y="200" width="80" height="40" as="geometry" />
        </mxCell>
        <mxCell id="isZL2Ls8pScrw3JJbjqI-19" style="edgeStyle=orthogonalEdgeStyle;rounded=0;orthogonalLoop=1;jettySize=auto;html=1;exitX=1;exitY=0.5;exitDx=0;exitDy=0;entryX=0;entryY=0.75;entryDx=0;entryDy=0;" edge="1" parent="1" source="isZL2Ls8pScrw3JJbjqI-3" target="isZL2Ls8pScrw3JJbjqI-4">
          <mxGeometry relative="1" as="geometry" />
        </mxCell>
        <mxCell id="isZL2Ls8pScrw3JJbjqI-3" value="GSC跌0词" style="rounded=1;whiteSpace=wrap;html=1;" vertex="1" parent="1">
          <mxGeometry x="80" y="280" width="80" height="40" as="geometry" />
        </mxCell>
        <mxCell id="isZL2Ls8pScrw3JJbjqI-20" style="edgeStyle=orthogonalEdgeStyle;rounded=0;orthogonalLoop=1;jettySize=auto;html=1;exitX=1;exitY=0.25;exitDx=0;exitDy=0;entryX=0;entryY=0.5;entryDx=0;entryDy=0;" edge="1" parent="1" source="isZL2Ls8pScrw3JJbjqI-4" target="isZL2Ls8pScrw3JJbjqI-9">
          <mxGeometry relative="1" as="geometry" />
        </mxCell>
        <mxCell id="isZL2Ls8pScrw3JJbjqI-22" style="edgeStyle=orthogonalEdgeStyle;rounded=0;orthogonalLoop=1;jettySize=auto;html=1;exitX=1;exitY=0.5;exitDx=0;exitDy=0;entryX=0;entryY=0.5;entryDx=0;entryDy=0;" edge="1" parent="1" source="isZL2Ls8pScrw3JJbjqI-4" target="isZL2Ls8pScrw3JJbjqI-5">
          <mxGeometry relative="1" as="geometry" />
        </mxCell>
        <mxCell id="isZL2Ls8pScrw3JJbjqI-23" style="edgeStyle=orthogonalEdgeStyle;rounded=0;orthogonalLoop=1;jettySize=auto;html=1;exitX=1;exitY=0.75;exitDx=0;exitDy=0;entryX=0;entryY=0.5;entryDx=0;entryDy=0;" edge="1" parent="1" source="isZL2Ls8pScrw3JJbjqI-4" target="isZL2Ls8pScrw3JJbjqI-6">
          <mxGeometry relative="1" as="geometry" />
        </mxCell>
        <mxCell id="isZL2Ls8pScrw3JJbjqI-4" value="改写&amp;amp;去重&amp;amp;过滤" style="rounded=1;whiteSpace=wrap;html=1;" vertex="1" parent="1">
          <mxGeometry x="240" y="200" width="80" height="40" as="geometry" />
        </mxCell>
        <mxCell id="isZL2Ls8pScrw3JJbjqI-5" value="keyword-slug入表" style="rounded=1;whiteSpace=wrap;html=1;" vertex="1" parent="1">
          <mxGeometry x="400" y="200" width="80" height="40" as="geometry" />
        </mxCell>
        <mxCell id="isZL2Ls8pScrw3JJbjqI-24" style="edgeStyle=orthogonalEdgeStyle;rounded=0;orthogonalLoop=1;jettySize=auto;html=1;exitX=1;exitY=0.5;exitDx=0;exitDy=0;entryX=0;entryY=0.5;entryDx=0;entryDy=0;" edge="1" parent="1" source="isZL2Ls8pScrw3JJbjqI-6" target="isZL2Ls8pScrw3JJbjqI-7">
          <mxGeometry relative="1" as="geometry" />
        </mxCell>
        <mxCell id="isZL2Ls8pScrw3JJbjqI-6" value="url生成" style="rounded=1;whiteSpace=wrap;html=1;" vertex="1" parent="1">
          <mxGeometry x="400" y="280" width="80" height="40" as="geometry" />
        </mxCell>
        <mxCell id="isZL2Ls8pScrw3JJbjqI-7" value="cserp&lt;div&gt;sitemap提交&lt;/div&gt;" style="rounded=1;whiteSpace=wrap;html=1;" vertex="1" parent="1">
          <mxGeometry x="560" y="280" width="80" height="40" as="geometry" />
        </mxCell>
        <mxCell id="isZL2Ls8pScrw3JJbjqI-14" style="edgeStyle=orthogonalEdgeStyle;rounded=0;orthogonalLoop=1;jettySize=auto;html=1;exitX=1;exitY=0.5;exitDx=0;exitDy=0;entryX=0;entryY=0.5;entryDx=0;entryDy=0;" edge="1" parent="1" source="isZL2Ls8pScrw3JJbjqI-8" target="isZL2Ls8pScrw3JJbjqI-11">
          <mxGeometry relative="1" as="geometry" />
        </mxCell>
        <mxCell id="isZL2Ls8pScrw3JJbjqI-8" value="City-cserp分流" style="rounded=1;whiteSpace=wrap;html=1;" vertex="1" parent="1">
          <mxGeometry x="80" y="400" width="80" height="40" as="geometry" />
        </mxCell>
        <mxCell id="isZL2Ls8pScrw3JJbjqI-21" style="edgeStyle=orthogonalEdgeStyle;rounded=0;orthogonalLoop=1;jettySize=auto;html=1;exitX=1;exitY=0.5;exitDx=0;exitDy=0;entryX=0;entryY=0.5;entryDx=0;entryDy=0;" edge="1" parent="1" source="isZL2Ls8pScrw3JJbjqI-9" target="isZL2Ls8pScrw3JJbjqI-10">
          <mxGeometry relative="1" as="geometry" />
        </mxCell>
        <mxCell id="isZL2Ls8pScrw3JJbjqI-9" value="TDK生成" style="rounded=1;whiteSpace=wrap;html=1;" vertex="1" parent="1">
          <mxGeometry x="400" y="120" width="80" height="40" as="geometry" />
        </mxCell>
        <mxCell id="isZL2Ls8pScrw3JJbjqI-10" value="TD修改" style="rounded=1;whiteSpace=wrap;html=1;" vertex="1" parent="1">
          <mxGeometry x="560" y="120" width="80" height="40" as="geometry" />
        </mxCell>
        <mxCell id="isZL2Ls8pScrw3JJbjqI-15" style="edgeStyle=orthogonalEdgeStyle;rounded=0;orthogonalLoop=1;jettySize=auto;html=1;exitX=1;exitY=0.5;exitDx=0;exitDy=0;entryX=0;entryY=0.5;entryDx=0;entryDy=0;" edge="1" parent="1" source="isZL2Ls8pScrw3JJbjqI-11" target="isZL2Ls8pScrw3JJbjqI-12">
          <mxGeometry relative="1" as="geometry" />
        </mxCell>
        <mxCell id="isZL2Ls8pScrw3JJbjqI-11" value="TD生成" style="rounded=1;whiteSpace=wrap;html=1;" vertex="1" parent="1">
          <mxGeometry x="240" y="400" width="80" height="40" as="geometry" />
        </mxCell>
        <mxCell id="isZL2Ls8pScrw3JJbjqI-16" style="edgeStyle=orthogonalEdgeStyle;rounded=0;orthogonalLoop=1;jettySize=auto;html=1;exitX=1;exitY=0.5;exitDx=0;exitDy=0;entryX=0;entryY=0.5;entryDx=0;entryDy=0;" edge="1" parent="1" source="isZL2Ls8pScrw3JJbjqI-12" target="isZL2Ls8pScrw3JJbjqI-13">
          <mxGeometry relative="1" as="geometry" />
        </mxCell>
        <mxCell id="isZL2Ls8pScrw3JJbjqI-12" value="TD修改" style="rounded=1;whiteSpace=wrap;html=1;" vertex="1" parent="1">
          <mxGeometry x="400" y="400" width="80" height="40" as="geometry" />
        </mxCell>
        <mxCell id="isZL2Ls8pScrw3JJbjqI-13" value="sitemap分离" style="rounded=1;whiteSpace=wrap;html=1;" vertex="1" parent="1">
          <mxGeometry x="560" y="400" width="80" height="40" as="geometry" />
        </mxCell>
        <mxCell id="isZL2Ls8pScrw3JJbjqI-25" style="edgeStyle=orthogonalEdgeStyle;rounded=0;orthogonalLoop=1;jettySize=auto;html=1;exitX=1;exitY=0.5;exitDx=0;exitDy=0;entryX=0;entryY=0.25;entryDx=0;entryDy=0;" edge="1" parent="1" source="isZL2Ls8pScrw3JJbjqI-26" target="isZL2Ls8pScrw3JJbjqI-34">
          <mxGeometry relative="1" as="geometry" />
        </mxCell>
        <mxCell id="isZL2Ls8pScrw3JJbjqI-26" value="CSERP关键词" style="rounded=1;whiteSpace=wrap;html=1;" vertex="1" parent="1">
          <mxGeometry x="806" y="103" width="80" height="40" as="geometry" />
        </mxCell>
        <mxCell id="isZL2Ls8pScrw3JJbjqI-27" style="edgeStyle=orthogonalEdgeStyle;rounded=0;orthogonalLoop=1;jettySize=auto;html=1;exitX=1;exitY=0.5;exitDx=0;exitDy=0;entryX=0;entryY=0.5;entryDx=0;entryDy=0;" edge="1" parent="1" source="isZL2Ls8pScrw3JJbjqI-28" target="isZL2Ls8pScrw3JJbjqI-34">
          <mxGeometry relative="1" as="geometry" />
        </mxCell>
        <mxCell id="isZL2Ls8pScrw3JJbjqI-28" value="Showroom关键词" style="rounded=1;whiteSpace=wrap;html=1;" vertex="1" parent="1">
          <mxGeometry x="806" y="183" width="80" height="40" as="geometry" />
        </mxCell>
        <mxCell id="isZL2Ls8pScrw3JJbjqI-29" style="edgeStyle=orthogonalEdgeStyle;rounded=0;orthogonalLoop=1;jettySize=auto;html=1;exitX=1;exitY=0.5;exitDx=0;exitDy=0;entryX=0;entryY=0.75;entryDx=0;entryDy=0;" edge="1" parent="1" source="isZL2Ls8pScrw3JJbjqI-30" target="isZL2Ls8pScrw3JJbjqI-34">
          <mxGeometry relative="1" as="geometry" />
        </mxCell>
        <mxCell id="isZL2Ls8pScrw3JJbjqI-30" value="GSC跌0词" style="rounded=1;whiteSpace=wrap;html=1;" vertex="1" parent="1">
          <mxGeometry x="806" y="263" width="80" height="40" as="geometry" />
        </mxCell>
        <mxCell id="isZL2Ls8pScrw3JJbjqI-31" style="edgeStyle=orthogonalEdgeStyle;rounded=0;orthogonalLoop=1;jettySize=auto;html=1;exitX=1;exitY=0.25;exitDx=0;exitDy=0;entryX=0;entryY=0.5;entryDx=0;entryDy=0;" edge="1" parent="1" source="isZL2Ls8pScrw3JJbjqI-34" target="isZL2Ls8pScrw3JJbjqI-42">
          <mxGeometry relative="1" as="geometry" />
        </mxCell>
        <mxCell id="isZL2Ls8pScrw3JJbjqI-32" style="edgeStyle=orthogonalEdgeStyle;rounded=0;orthogonalLoop=1;jettySize=auto;html=1;exitX=1;exitY=0.5;exitDx=0;exitDy=0;entryX=0;entryY=0.5;entryDx=0;entryDy=0;" edge="1" parent="1" source="isZL2Ls8pScrw3JJbjqI-34" target="isZL2Ls8pScrw3JJbjqI-35">
          <mxGeometry relative="1" as="geometry" />
        </mxCell>
        <mxCell id="isZL2Ls8pScrw3JJbjqI-33" style="edgeStyle=orthogonalEdgeStyle;rounded=0;orthogonalLoop=1;jettySize=auto;html=1;exitX=1;exitY=0.75;exitDx=0;exitDy=0;entryX=0;entryY=0.5;entryDx=0;entryDy=0;" edge="1" parent="1" source="isZL2Ls8pScrw3JJbjqI-34" target="isZL2Ls8pScrw3JJbjqI-37">
          <mxGeometry relative="1" as="geometry" />
        </mxCell>
        <mxCell id="isZL2Ls8pScrw3JJbjqI-34" value="改写&amp;amp;去重&amp;amp;过滤" style="rounded=1;whiteSpace=wrap;html=1;" vertex="1" parent="1">
          <mxGeometry x="966" y="183" width="80" height="40" as="geometry" />
        </mxCell>
        <mxCell id="isZL2Ls8pScrw3JJbjqI-35" value="showroom-keyword入表" style="rounded=1;whiteSpace=wrap;html=1;" vertex="1" parent="1">
          <mxGeometry x="1126" y="183" width="80" height="40" as="geometry" />
        </mxCell>
        <mxCell id="isZL2Ls8pScrw3JJbjqI-36" style="edgeStyle=orthogonalEdgeStyle;rounded=0;orthogonalLoop=1;jettySize=auto;html=1;exitX=1;exitY=0.5;exitDx=0;exitDy=0;entryX=0;entryY=0.5;entryDx=0;entryDy=0;" edge="1" parent="1" source="isZL2Ls8pScrw3JJbjqI-37" target="isZL2Ls8pScrw3JJbjqI-38">
          <mxGeometry relative="1" as="geometry" />
        </mxCell>
        <mxCell id="isZL2Ls8pScrw3JJbjqI-37" value="url生成" style="rounded=1;whiteSpace=wrap;html=1;" vertex="1" parent="1">
          <mxGeometry x="1126" y="263" width="80" height="40" as="geometry" />
        </mxCell>
        <mxCell id="isZL2Ls8pScrw3JJbjqI-38" value="showroom&lt;div&gt;sitemap提交&lt;/div&gt;" style="rounded=1;whiteSpace=wrap;html=1;" vertex="1" parent="1">
          <mxGeometry x="1286" y="263" width="80" height="40" as="geometry" />
        </mxCell>
        <mxCell id="isZL2Ls8pScrw3JJbjqI-41" style="edgeStyle=orthogonalEdgeStyle;rounded=0;orthogonalLoop=1;jettySize=auto;html=1;exitX=1;exitY=0.5;exitDx=0;exitDy=0;entryX=0;entryY=0.5;entryDx=0;entryDy=0;" edge="1" parent="1" source="isZL2Ls8pScrw3JJbjqI-42" target="isZL2Ls8pScrw3JJbjqI-43">
          <mxGeometry relative="1" as="geometry" />
        </mxCell>
        <mxCell id="isZL2Ls8pScrw3JJbjqI-42" value="TDK生成" style="rounded=1;whiteSpace=wrap;html=1;" vertex="1" parent="1">
          <mxGeometry x="1126" y="103" width="80" height="40" as="geometry" />
        </mxCell>
        <mxCell id="isZL2Ls8pScrw3JJbjqI-43" value="TD修改" style="rounded=1;whiteSpace=wrap;html=1;" vertex="1" parent="1">
          <mxGeometry x="1286" y="103" width="80" height="40" as="geometry" />
        </mxCell>
        <mxCell id="isZL2Ls8pScrw3JJbjqI-56" style="edgeStyle=orthogonalEdgeStyle;rounded=0;orthogonalLoop=1;jettySize=auto;html=1;exitX=1;exitY=0.5;exitDx=0;exitDy=0;entryX=0;entryY=0.25;entryDx=0;entryDy=0;" edge="1" parent="1" source="isZL2Ls8pScrw3JJbjqI-57" target="isZL2Ls8pScrw3JJbjqI-62">
          <mxGeometry relative="1" as="geometry" />
        </mxCell>
        <mxCell id="isZL2Ls8pScrw3JJbjqI-57" value="CSERP关键词" style="rounded=1;whiteSpace=wrap;html=1;" vertex="1" parent="1">
          <mxGeometry x="806" y="349" width="80" height="40" as="geometry" />
        </mxCell>
        <mxCell id="isZL2Ls8pScrw3JJbjqI-58" style="edgeStyle=orthogonalEdgeStyle;rounded=0;orthogonalLoop=1;jettySize=auto;html=1;exitX=1;exitY=0.5;exitDx=0;exitDy=0;entryX=0;entryY=0.5;entryDx=0;entryDy=0;" edge="1" parent="1" source="isZL2Ls8pScrw3JJbjqI-59" target="isZL2Ls8pScrw3JJbjqI-62">
          <mxGeometry relative="1" as="geometry" />
        </mxCell>
        <mxCell id="isZL2Ls8pScrw3JJbjqI-59" value="Showroom关键词" style="rounded=1;whiteSpace=wrap;html=1;" vertex="1" parent="1">
          <mxGeometry x="806" y="429" width="80" height="40" as="geometry" />
        </mxCell>
        <mxCell id="isZL2Ls8pScrw3JJbjqI-60" style="edgeStyle=orthogonalEdgeStyle;rounded=0;orthogonalLoop=1;jettySize=auto;html=1;exitX=1;exitY=0.5;exitDx=0;exitDy=0;entryX=0;entryY=0.75;entryDx=0;entryDy=0;" edge="1" parent="1" source="isZL2Ls8pScrw3JJbjqI-61" target="isZL2Ls8pScrw3JJbjqI-62">
          <mxGeometry relative="1" as="geometry" />
        </mxCell>
        <mxCell id="isZL2Ls8pScrw3JJbjqI-61" value="GSC跌0词" style="rounded=1;whiteSpace=wrap;html=1;" vertex="1" parent="1">
          <mxGeometry x="806" y="509" width="80" height="40" as="geometry" />
        </mxCell>
        <mxCell id="isZL2Ls8pScrw3JJbjqI-67" style="edgeStyle=orthogonalEdgeStyle;rounded=0;orthogonalLoop=1;jettySize=auto;html=1;exitX=1;exitY=0.5;exitDx=0;exitDy=0;entryX=0;entryY=0.5;entryDx=0;entryDy=0;" edge="1" parent="1" source="isZL2Ls8pScrw3JJbjqI-62" target="isZL2Ls8pScrw3JJbjqI-63">
          <mxGeometry relative="1" as="geometry" />
        </mxCell>
        <mxCell id="isZL2Ls8pScrw3JJbjqI-62" value="改写&amp;amp;去重&amp;amp;过滤" style="rounded=1;whiteSpace=wrap;html=1;" vertex="1" parent="1">
          <mxGeometry x="966" y="429" width="80" height="40" as="geometry" />
        </mxCell>
        <mxCell id="isZL2Ls8pScrw3JJbjqI-68" style="edgeStyle=orthogonalEdgeStyle;rounded=0;orthogonalLoop=1;jettySize=auto;html=1;exitX=1;exitY=0.5;exitDx=0;exitDy=0;entryX=0;entryY=0.5;entryDx=0;entryDy=0;" edge="1" parent="1" source="isZL2Ls8pScrw3JJbjqI-63" target="isZL2Ls8pScrw3JJbjqI-64">
          <mxGeometry relative="1" as="geometry" />
        </mxCell>
        <mxCell id="isZL2Ls8pScrw3JJbjqI-69" style="edgeStyle=orthogonalEdgeStyle;rounded=0;orthogonalLoop=1;jettySize=auto;html=1;exitX=0.5;exitY=1;exitDx=0;exitDy=0;entryX=0;entryY=0.5;entryDx=0;entryDy=0;" edge="1" parent="1" source="isZL2Ls8pScrw3JJbjqI-63" target="isZL2Ls8pScrw3JJbjqI-65">
          <mxGeometry relative="1" as="geometry" />
        </mxCell>
        <mxCell id="isZL2Ls8pScrw3JJbjqI-70" style="edgeStyle=orthogonalEdgeStyle;rounded=0;orthogonalLoop=1;jettySize=auto;html=1;exitX=0.5;exitY=1;exitDx=0;exitDy=0;entryX=0;entryY=0.5;entryDx=0;entryDy=0;" edge="1" parent="1" source="isZL2Ls8pScrw3JJbjqI-63" target="isZL2Ls8pScrw3JJbjqI-66">
          <mxGeometry relative="1" as="geometry" />
        </mxCell>
        <mxCell id="isZL2Ls8pScrw3JJbjqI-63" value="TD生成" style="rounded=1;whiteSpace=wrap;html=1;" vertex="1" parent="1">
          <mxGeometry x="1126" y="429" width="80" height="40" as="geometry" />
        </mxCell>
        <mxCell id="isZL2Ls8pScrw3JJbjqI-64" value="TD修改" style="rounded=1;whiteSpace=wrap;html=1;" vertex="1" parent="1">
          <mxGeometry x="1286" y="429" width="80" height="40" as="geometry" />
        </mxCell>
        <mxCell id="isZL2Ls8pScrw3JJbjqI-65" value="showroom&lt;div&gt;sitemap提交&lt;/div&gt;" style="rounded=1;whiteSpace=wrap;html=1;" vertex="1" parent="1">
          <mxGeometry x="1286" y="501" width="80" height="40" as="geometry" />
        </mxCell>
        <mxCell id="isZL2Ls8pScrw3JJbjqI-66" value="cserp&lt;div&gt;sitemap提交&lt;/div&gt;" style="rounded=1;whiteSpace=wrap;html=1;" vertex="1" parent="1">
          <mxGeometry x="1286" y="565" width="80" height="40" as="geometry" />
        </mxCell>
        <mxCell id="isZL2Ls8pScrw3JJbjqI-71" value="PRD1" style="text;html=1;align=center;verticalAlign=middle;whiteSpace=wrap;rounded=0;" vertex="1" parent="1">
          <mxGeometry x="71" y="71" width="60" height="30" as="geometry" />
        </mxCell>
        <mxCell id="isZL2Ls8pScrw3JJbjqI-72" value="PRD1" style="text;html=1;align=center;verticalAlign=middle;whiteSpace=wrap;rounded=0;" vertex="1" parent="1">
          <mxGeometry x="71" y="345" width="60" height="30" as="geometry" />
        </mxCell>
        <mxCell id="isZL2Ls8pScrw3JJbjqI-73" value="PRD3" style="text;html=1;align=center;verticalAlign=middle;whiteSpace=wrap;rounded=0;" vertex="1" parent="1">
          <mxGeometry x="797" y="60" width="60" height="30" as="geometry" />
        </mxCell>
        <mxCell id="isZL2Ls8pScrw3JJbjqI-74" value="PRD4" style="text;html=1;align=center;verticalAlign=middle;whiteSpace=wrap;rounded=0;" vertex="1" parent="1">
          <mxGeometry x="797" y="315" width="60" height="30" as="geometry" />
        </mxCell>
        <mxCell id="isZL2Ls8pScrw3JJbjqI-75" value="showroom-keyword入表" style="rounded=1;whiteSpace=wrap;html=1;" vertex="1" parent="1">
          <mxGeometry x="1189" y="478" width="80" height="40" as="geometry" />
        </mxCell>
        <mxCell id="isZL2Ls8pScrw3JJbjqI-76" value="keyword-slug入表" style="rounded=1;whiteSpace=wrap;html=1;" vertex="1" parent="1">
          <mxGeometry x="1193" y="534" width="80" height="40" as="geometry" />
        </mxCell>
        <mxCell id="isZL2Ls8pScrw3JJbjqI-77" value="@鑫昆" style="text;html=1;align=center;verticalAlign=middle;whiteSpace=wrap;rounded=0;" vertex="1" parent="1">
          <mxGeometry x="673" y="123" width="60" height="30" as="geometry" />
        </mxCell>
        <mxCell id="isZL2Ls8pScrw3JJbjqI-78" value="@鑫昆" style="text;html=1;align=center;verticalAlign=middle;whiteSpace=wrap;rounded=0;" vertex="1" parent="1">
          <mxGeometry x="1399" y="106" width="60" height="30" as="geometry" />
        </mxCell>
        <mxCell id="isZL2Ls8pScrw3JJbjqI-79" value="@鑫昆" style="text;html=1;align=center;verticalAlign=middle;whiteSpace=wrap;rounded=0;" vertex="1" parent="1">
          <mxGeometry x="1399" y="434" width="60" height="30" as="geometry" />
        </mxCell>
        <mxCell id="isZL2Ls8pScrw3JJbjqI-80" value="@晓宇" style="text;html=1;align=center;verticalAlign=middle;whiteSpace=wrap;rounded=0;" vertex="1" parent="1">
          <mxGeometry x="673" y="203" width="60" height="30" as="geometry" />
        </mxCell>
        <mxCell id="isZL2Ls8pScrw3JJbjqI-81" value="@晓宇" style="text;html=1;align=center;verticalAlign=middle;whiteSpace=wrap;rounded=0;" vertex="1" parent="1">
          <mxGeometry x="1399" y="188" width="60" height="30" as="geometry" />
        </mxCell>
        <mxCell id="isZL2Ls8pScrw3JJbjqI-82" value="@晓宇" style="text;html=1;align=center;verticalAlign=middle;whiteSpace=wrap;rounded=0;" vertex="1" parent="1">
          <mxGeometry x="1399" y="475" width="60" height="30" as="geometry" />
        </mxCell>
        <mxCell id="isZL2Ls8pScrw3JJbjqI-83" value="@晓宇" style="text;html=1;align=center;verticalAlign=middle;whiteSpace=wrap;rounded=0;" vertex="1" parent="1">
          <mxGeometry x="1399" y="537" width="60" height="30" as="geometry" />
        </mxCell>
        <mxCell id="isZL2Ls8pScrw3JJbjqI-84" value="@庆勤" style="text;html=1;align=center;verticalAlign=middle;whiteSpace=wrap;rounded=0;" vertex="1" parent="1">
          <mxGeometry x="673" y="285" width="60" height="30" as="geometry" />
        </mxCell>
        <mxCell id="isZL2Ls8pScrw3JJbjqI-85" value="@庆勤" style="text;html=1;align=center;verticalAlign=middle;whiteSpace=wrap;rounded=0;" vertex="1" parent="1">
          <mxGeometry x="673" y="405" width="60" height="30" as="geometry" />
        </mxCell>
        <mxCell id="isZL2Ls8pScrw3JJbjqI-86" value="@庆勤" style="text;html=1;align=center;verticalAlign=middle;whiteSpace=wrap;rounded=0;" vertex="1" parent="1">
          <mxGeometry x="1399" y="268" width="60" height="30" as="geometry" />
        </mxCell>
        <mxCell id="isZL2Ls8pScrw3JJbjqI-87" value="@庆勤" style="text;html=1;align=center;verticalAlign=middle;whiteSpace=wrap;rounded=0;" vertex="1" parent="1">
          <mxGeometry x="1399" y="575" width="60" height="30" as="geometry" />
        </mxCell>
        <mxCell id="isZL2Ls8pScrw3JJbjqI-88" value="@庆勤" style="text;html=1;align=center;verticalAlign=middle;whiteSpace=wrap;rounded=0;" vertex="1" parent="1">
          <mxGeometry x="1399" y="504" width="60" height="30" as="geometry" />
        </mxCell>
      </root>
    </mxGraphModel>
  </diagram>
</mxfile>
